<?xml version="1.0" encoding="utf-8"?>
<!-- Generator: Adobe Illustrator 16.0.0, SVG Export Plug-In . SVG Version: 6.00 Build 0)  -->
<!DOCTYPE svg PUBLIC "-//W3C//DTD SVG 1.0//EN" "http://www.w3.org/TR/2001/REC-SVG-20010904/DTD/svg10.dtd">
<svg version="1.0" id="Layer_1" xmlns="http://www.w3.org/2000/svg" xmlns:xlink="http://www.w3.org/1999/xlink" x="0px" y="0px"
	 width="513.051px" height="495.636px" viewBox="0 0 513.051 495.636" enable-background="new 0 0 513.051 495.636"
	 xml:space="preserve">
<circle fill="#FFFFFF" cx="246.762" cy="248.288" r="226.359"/>
<g>
	<g>
		<path fill="#2FB674" d="M275.441,235.194c-0.391-0.39-0.891-0.586-1.5-0.586h-11.145c-0.738-3.604-2.129-6.737-4.172-9.386h15.184
			c0.609,0,1.109-0.196,1.5-0.586c0.391-0.391,0.586-0.891,0.586-1.5v-6.648c0-0.609-0.195-1.109-0.586-1.5s-0.891-0.587-1.5-0.587
			h-54.227c-0.609,0-1.109,0.196-1.5,0.587c-0.392,0.391-0.586,0.891-0.586,1.5v8.668c0,0.566,0.207,1.055,0.621,1.469
			c0.409,0.41,0.898,0.617,1.465,0.617h9.449c9.168,0,14.991,2.452,17.469,7.362h-26.918c-0.609,0-1.109,0.196-1.5,0.59
			c-0.392,0.392-0.586,0.888-0.586,1.496v6.649c0,0.609,0.194,1.109,0.586,1.5c0.391,0.39,0.891,0.586,1.5,0.586h27.832
			c-0.957,3.566-3.185,6.281-6.685,8.148c-3.496,1.866-8.112,2.805-13.847,2.805h-7.301c-0.566,0-1.056,0.203-1.465,0.617
			c-0.414,0.414-0.621,0.901-0.621,1.469v8.276c0,0.566,0.194,1.043,0.586,1.434c8.344,8.863,19.164,21.27,32.461,37.219
			c0.391,0.52,0.934,0.781,1.629,0.781h12.711c0.91,0,1.543-0.391,1.887-1.176c0.438-0.781,0.352-1.52-0.258-2.215
			c-12.688-15.555-22.661-27.203-29.918-34.938c7.386-0.867,13.383-3.258,17.988-7.167c4.605-3.911,7.41-8.997,8.41-15.25h10.949
			c0.609,0,1.109-0.196,1.5-0.59c0.391-0.391,0.586-0.891,0.586-1.496v-6.649C276.027,236.086,275.832,235.586,275.441,235.194
			L275.441,235.194z M275.441,235.194"/>
	</g>
	<g>
		<path fill-rule="evenodd" clip-rule="evenodd" fill="#2FB674" d="M111.771,226.551c0-18.33-0.014-36.659,0.006-54.989
			c0.008-8.515,5.081-13.66,13.518-13.669c22.329-0.024,44.66-0.172,66.985,0.121c4.802,0.063,5.625-1.497,5.597-5.828
			c-0.056-8.582-1.016-17.238,1.785-25.703c2.543-7.684,13.482-17.123,23.111-16.712c15.136,0.646,30.372,0.96,45.468-0.053
			c14.729-0.988,27.552,11.86,27.509,26.968c-0.015,5.165,0.268,10.35-0.084,15.49c-0.299,4.355,0.763,5.896,5.563,5.833
			c22.158-0.294,44.322-0.139,66.485-0.125c9.113,0.006,14.019,4.966,14.021,14.147c0.006,36.494-0.063,72.986,0.094,109.479
			c0.018,4.067-0.933,5.341-5.172,5.282c-17.825-0.246-35.659-0.229-53.486-0.012c-4.243,0.052-4.543-1.146-3.449-4.813
			c12.66-42.415-16.06-88.318-60.851-95.313c-38.81-6.062-77.732,17.771-86.798,60.523c-2.498,11.781-1.985,23.687,1.796,35.229
			c1.083,3.303,0.746,4.37-2.987,4.34c-18.328-0.144-36.659-0.141-54.987-0.005c-3.254,0.023-4.23-0.878-4.201-4.204
			C111.854,263.879,111.771,245.214,111.771,226.551z M246.575,157.879c9.155,0,18.312-0.083,27.464,0.052
			c2.67,0.04,3.881-0.495,3.776-3.515c-0.22-6.317,0.003-12.649-0.088-18.973c-0.076-5.238-3.003-8.399-8.324-8.45
			c-15.146-0.144-30.295-0.156-45.44,0.008c-5.315,0.058-8.118,3.241-8.186,8.584c-0.078,6.157,0.148,12.323-0.089,18.474
			c-0.12,3.108,0.854,3.96,3.923,3.892C228.596,157.75,237.587,157.879,246.575,157.879z"/>
		<path fill-rule="evenodd" clip-rule="evenodd" fill="#2FB674" d="M246.251,364.911c-40.473,0-80.945,0.003-121.418-0.002
			c-7.835-0.001-13.026-5.085-13.048-12.923c-0.045-16.987,0.068-33.978-0.086-50.965c-0.029-3.245,0.845-4.199,4.142-4.175
			c19.985,0.149,39.973,0.125,59.959,0.014c2.644-0.015,4.152,0.744,5.552,3.058c13.174,21.773,32.384,34.592,57.778,36.901
			c31.822,2.896,56.06-10.133,73.056-36.937c1.295-2.041,2.533-3.032,5.064-3.02c20.318,0.104,40.639,0.115,60.957-0.005
			c2.901-0.018,3.606,0.896,3.588,3.675c-0.115,17.321-0.003,34.644-0.084,51.964c-0.034,7.23-5.375,12.407-12.544,12.409
			C328.195,364.917,287.223,364.911,246.251,364.911z"/>
	</g>
</g>
</svg>
